<svg width="96" height="96" viewBox="0 0 1024 1024" fill="none" xmlns="http://www.w3.org/2000/svg">
  <defs>
    <linearGradient id="polvoHead" x1="512" y1="80" x2="512" y2="560" gradientUnits="userSpaceOnUse">
      <stop stop-color="#F24A5E"/>
      <stop offset="1" stop-color="#D42A3F"/>
    </linearGradient>
    <linearGradient id="polvoTentacle" x1="256" y1="480" x2="768" y2="900" gradientUnits="userSpaceOnUse">
      <stop stop-color="#E5344A"/>
      <stop offset="1" stop-color="#C92840"/>
    </linearGradient>
    <filter id="polvoShadow" x="0" y="0" width="1024" height="1024" filterUnits="userSpaceOnUse" color-interpolation-filters="sRGB">
      <feFlood flood-opacity="0" result="BackgroundImageFix"/>
      <feColorMatrix in="SourceAlpha" type="matrix" values="0 0 0 0 0 0 0 0 0 0 0 0 0 0 0 0 0 0 127 0" result="hardAlpha"/>
      <feOffset dy="12"/>
      <feGaussianBlur stdDeviation="18"/>
      <feColorMatrix type="matrix" values="0 0 0 0 0.55 0 0 0 0 0.08 0 0 0 0 0.14 0 0 0 0.35 0"/>
      <feBlend mode="normal" in2="BackgroundImageFix" result="effect1_dropShadow"/>
      <feBlend mode="normal" in="SourceGraphic" in2="effect1_dropShadow" result="shape"/>
    </filter>
  </defs>
  <g filter="url(#polvoShadow)" transform="translate(64 64) scale(0.875)">
    <path d="M 395 530 Q 250 520 170 640 Q 110 720 175 790" stroke="url(#polvoTentacle)" stroke-width="72" stroke-linecap="round" fill="none"/>
    <path d="M 355 515 Q 200 500 95 560 Q 40 600 75 660" stroke="url(#polvoTentacle)" stroke-width="68" stroke-linecap="round" fill="none"/>
    <path d="M 330 495 Q 150 470 70 500 Q 20 520 55 575" stroke="url(#polvoTentacle)" stroke-width="64" stroke-linecap="round" fill="none"/>
    <path d="M 385 475 Q 280 350 200 250 Q 150 180 195 155 Q 235 140 270 210 Q 320 330 395 455" stroke="url(#polvoTentacle)" stroke-width="60" stroke-linecap="round" fill="none"/>
    <path d="M 629 530 Q 774 520 854 640 Q 914 720 849 790" stroke="url(#polvoTentacle)" stroke-width="72" stroke-linecap="round" fill="none"/>
    <path d="M 669 515 Q 824 500 929 560 Q 984 600 949 660" stroke="url(#polvoTentacle)" stroke-width="68" stroke-linecap="round" fill="none"/>
    <path d="M 694 495 Q 874 470 954 500 Q 1004 520 969 575" stroke="url(#polvoTentacle)" stroke-width="64" stroke-linecap="round" fill="none"/>
    <path d="M 639 475 Q 744 350 824 250 Q 874 180 829 155 Q 789 140 754 210 Q 704 330 629 455" stroke="url(#polvoTentacle)" stroke-width="60" stroke-linecap="round" fill="none"/>
    <ellipse cx="512" cy="355" rx="268" ry="278" fill="url(#polvoHead)" stroke="#B82438" stroke-width="10"/>
    <ellipse cx="512" cy="500" rx="220" ry="95" fill="#E5344A"/>
    <circle cx="220" cy="700" r="20" fill="#F4A5B5"/>
    <circle cx="175" cy="760" r="16" fill="#F4A5B5"/>
    <circle cx="130" cy="610" r="18" fill="#F4A5B5"/>
    <circle cx="95" cy="555" r="15" fill="#F4A5B5"/>
    <circle cx="115" cy="505" r="14" fill="#F4A5B5"/>
    <circle cx="235" cy="280" r="17" fill="#F4A5B5"/>
    <circle cx="285" cy="360" r="15" fill="#F4A5B5"/>
    <circle cx="330" cy="430" r="13" fill="#F4A5B5"/>
    <circle cx="804" cy="700" r="20" fill="#F4A5B5"/>
    <circle cx="849" cy="760" r="16" fill="#F4A5B5"/>
    <circle cx="894" cy="610" r="18" fill="#F4A5B5"/>
    <circle cx="929" cy="555" r="15" fill="#F4A5B5"/>
    <circle cx="909" cy="505" r="14" fill="#F4A5B5"/>
    <circle cx="789" cy="280" r="17" fill="#F4A5B5"/>
    <circle cx="739" cy="360" r="15" fill="#F4A5B5"/>
    <circle cx="694" cy="430" r="13" fill="#F4A5B5"/>
    <path d="M 418 340 Q 442 378 466 340" stroke="#261612" stroke-width="30" stroke-linecap="round" fill="none"/>
    <path d="M 558 340 Q 582 378 606 340" stroke="#261612" stroke-width="30" stroke-linecap="round" fill="none"/>
    <ellipse cx="512" cy="300" rx="180" ry="90" fill="white" opacity="0.12"/>
  </g>
</svg>
